# xmcd CD database file
#
# Track frame offsets:
#	150
#	17763
#	34572
#	53770
#	70315
#	89030
#	100094
#	110332
#	126572
#	144341
#	163108
#	177080
#	196387
#	220981
#
# Disc length: 2969 seconds
#
# Revision: 19
# Processed by: cddbd v1.5.2PL0 Copyright (c) Steve Scherf et al.
# Submitted via: CDex 1.70beta2
#
DISCID=c70b970e
DTITLE=マキシマム ザ ホルモン - ぶっ生き返す
DYEAR=2007
DGENRE=Rock
TTITLE0=ぶっ生き返す!!
TTITLE1=絶望ビリー
TTITLE2=糞ブレイキン脳ブレイキン・リリィー
TTITLE3=ルイジアナ・ボブ
TTITLE4=ポリスマンベンツ
TTITLE5=ブラック\パワーGメンスパイ
TTITLE6=アカギ
TTITLE7=恐喝 -Kyokatsu-
TTITLE8=ビキニ・スポーツ・ポンチン
TTITLE9=What's up, people?!
TTITLE10=チューチュー ラブリー ムニムニ ムラムラ プリンプリン ボロン ヌルル レロレロ
TTITLE11=シミ
TTITLE12=恋のメガラバ
TTITLE13=Secret Track
EXTD=YEAR: 2007
EXTT0=
EXTT1=
EXTT2=
EXTT3=
EXTT4=
EXTT5=
EXTT6=
EXTT7=
EXTT8=
EXTT9=
EXTT10=
EXTT11=
EXTT12=
EXTT13=
PLAYORDER=
